<svg width="84" height="17" viewBox="0 0 84 17" fill="none" xmlns="http://www.w3.org/2000/svg">
<path d="M8 0.5L9.79611 6.02786H15.6085L10.9062 9.44427L12.7023 14.9721L8 11.5557L3.29772 14.9721L5.09383 9.44427L0.391548 6.02786H6.20389L8 0.5Z" fill="#FFB800"/>
<path d="M25.4444 0.5L27.3403 6.02786H33.4756L28.5121 9.44427L30.408 14.9721L25.4444 11.5557L20.4809 14.9721L22.3768 9.44427L17.4133 6.02786H23.5485L25.4444 0.5Z" fill="#FFB800"/>
<path d="M75.5556 0.5L77.2519 6.02786H82.7413L78.3003 9.44427L79.9966 14.9721L75.5556 11.5557L71.1145 14.9721L72.8108 9.44427L68.3698 6.02786H73.8592L75.5556 0.5Z" fill="#FFB800"/>
<path d="M42.4442 0.5L44.1406 6.02786H49.63L45.1889 9.44427L46.8853 14.9721L42.4442 11.5557L38.0032 14.9721L39.6995 9.44427L35.2585 6.02786H40.7479L42.4442 0.5Z" fill="#FFB800"/>
<path d="M59 0.5L60.7961 6.02786H66.6085L61.9062 9.44427L63.7023 14.9721L59 11.5557L54.2977 14.9721L56.0938 9.44427L51.3915 6.02786H57.2039L59 0.5Z" fill="#FFB800"/>
</svg>
