<svg width="68" height="49" viewBox="0 0 68 49" fill="none" xmlns="http://www.w3.org/2000/svg">
<g id="Group 63">
<path id="Vector" d="M66.4405 8.00532C66.0533 6.56675 65.2951 5.25512 64.2416 4.2017C63.1882 3.14829 61.8766 2.39005 60.438 2.00288C56.5066 0.484011 18.4193 -0.260136 7.36925 2.04536C5.93048 2.43267 4.6187 3.19117 3.56527 4.2449C2.51184 5.29863 1.75372 6.61061 1.36681 8.04949C-0.408606 15.8358 -0.542824 32.6692 1.41098 40.6305C1.79815 42.0691 2.55639 43.3807 3.6098 44.4341C4.66322 45.4875 5.97485 46.2458 7.41342 46.6329C15.1998 48.4253 52.2168 48.6768 60.4822 46.6329C61.9208 46.2458 63.2324 45.4875 64.2858 44.4341C65.3392 43.3807 66.0975 42.0691 66.4846 40.6305C68.3773 32.1476 68.5115 16.3574 66.4405 8.00532Z" fill="#FD0707"/>
<path id="Vector_2" d="M45.126 24.3172L27.377 14.1387V34.4956L45.126 24.3172Z" fill="white"/>
</g>
</svg>
